HIERARCHY
ROOT root
{
	OFFSET	0	13.1	24.9
	CHANNELS 6  Xposition Yposition Zposition Xrotation Yrotation Zrotation
	JOINT spine_1
	{
		OFFSET	0	9.99999	0
		CHANNELS 3  Xrotation Yrotation Zrotation
		JOINT spine_2
		{
			OFFSET	0	112	-10
			CHANNELS 3  Xrotation Yrotation Zrotation
			JOINT spine_3
			{
				OFFSET	0	206.5	19.3
				CHANNELS 3  Xrotation Yrotation Zrotation
				JOINT spine_4
				{
					OFFSET	0	110.4	14.6
					CHANNELS 3  Xrotation Yrotation Zrotation
					JOINT neck_1
					{
						OFFSET	0	71.8	-50.3
						CHANNELS 3  Xrotation Yrotation Zrotation
						JOINT neck_2
						{
							OFFSET	0	86.2	-25.8
							CHANNELS 3  Xrotation Yrotation Zrotation
							JOINT head_ee
							{
								OFFSET	0	179.8	-8.7
								CHANNELS 3  Xrotation Yrotation Zrotation
								End Site
								{
									OFFSET	1	0	0
								}
							}
						}
					}
					JOINT left_clavicle
					{
						OFFSET	-43.2	22.4	-70.8
						CHANNELS 3  Xrotation Yrotation Zrotation
						JOINT left_shoulder
						{
							OFFSET	-93.9	-5.79999	48.7
							CHANNELS 3  Xrotation Yrotation Zrotation
							JOINT left_elbow
							{
								OFFSET	-291.4	-30.8	15.2
								CHANNELS 3  Xrotation Yrotation Zrotation
								JOINT left_lowarm_twist
								{
									OFFSET	-110.7	-3.89999	13.6
									CHANNELS 3  Xrotation Yrotation Zrotation
									JOINT left_hand
									{
										OFFSET	-110.7	-3.89999	13.6
										CHANNELS 3  Xrotation Yrotation Zrotation
										JOINT left_ee
										{
											OFFSET	-80.8	-5.10001	12.1
											CHANNELS 3  Xrotation Yrotation Zrotation
											End Site
											{
												OFFSET	1	0	0
											}
										}
									}
								}
							}
						}
					}
					JOINT right_clavicle
					{
						OFFSET	43.2	22.4	-70.8
						CHANNELS 3  Xrotation Yrotation Zrotation
						JOINT right_shoulder
						{
							OFFSET	93.9	-5.79999	48.7
							CHANNELS 3  Xrotation Yrotation Zrotation
							JOINT right_elbow
							{
								OFFSET	291.4	-30.8	15.2
								CHANNELS 3  Xrotation Yrotation Zrotation
								JOINT right_lowarm_twist
								{
									OFFSET	110.7	-3.89999	13.6
									CHANNELS 3  Xrotation Yrotation Zrotation
									JOINT right_hand
									{
										OFFSET	110.7	-3.89999	13.6
										CHANNELS 3  Xrotation Yrotation Zrotation
										JOINT right_ee
										{
											OFFSET	80.8	-5.10001	12.1
											CHANNELS 3  Xrotation Yrotation Zrotation
											End Site
											{
												OFFSET	1	0	0
											}
										}
									}
								}
							}
						}
					}
				}
			}
		}
	}
	JOINT left_hip
	{
		OFFSET	-82.8	-127.5	0.300001
		CHANNELS 3  Xrotation Yrotation Zrotation
		JOINT left_knee
		{
			OFFSET	-28.2	-396.7	2.2
			CHANNELS 3  Xrotation Yrotation Zrotation
			JOINT left_ankle
			{
				OFFSET	-11.7	-411.3	35.4
				CHANNELS 3  Xrotation Yrotation Zrotation
				JOINT left_toes
				{
					OFFSET	0	-60	-88.6
					CHANNELS 3  Xrotation Yrotation Zrotation
					JOINT left_foot_ee
					{
						OFFSET	-22.5	-16.5	-42.2
						CHANNELS 3  Xrotation Yrotation Zrotation
						End Site
						{
							OFFSET	1	0	0
						}
					}
				}
			}
		}
	}
	JOINT right_hip
	{
		OFFSET	82.8	-127.5	0.300001
		CHANNELS 3  Xrotation Yrotation Zrotation
		JOINT right_knee
		{
			OFFSET	28.2	-396.7	2.2
			CHANNELS 3  Xrotation Yrotation Zrotation
			JOINT right_ankle
			{
				OFFSET	11.7	-411.3	35.4
				CHANNELS 3  Xrotation Yrotation Zrotation
				JOINT right_toes
				{
					OFFSET	0	-60	-88.6
					CHANNELS 3  Xrotation Yrotation Zrotation
					JOINT right_foot_ee
					{
						OFFSET	22.5	-16.5	-42.2
						CHANNELS 3  Xrotation Yrotation Zrotation
						End Site
						{
							OFFSET	1	0	0
						}
					}
				}
			}
		}
	}
}
MOTION
Frames: 6
Frame Time: 0.02
1183.30681045 738.222 -1784.41381381 -1.29334877376 37.4813274906 6.02057343729 2.97767 -0.271566 -1.84336 2.97955 -0.153738 -1.8569 2.98398 0.143483 -1.85772 2.97919 -0.151658 -1.85707 -10.0642 3.59441 -2.921 -10.0612 8.73762 -1.94937 -0.0 0.0 -0.0 6.63798 9.56092 12.7493 -28.4106 -27.1179 64.9655 0.346256 -9.73315 0.0294812 25.5859 0.181563 -3.23629 -0.41646 -2.44561 -3.83273 -0.0 0.0 -0.0 9.62 3.51154 -18.9863 -0.692536 -5.79671 -57.6227 0.652178 17.9042 -0.102737 26.6194 -0.158408 3.36629 5.95804 9.99476 -38.7325 0.0 0.0 0.0 26.8909 -8.74192 -7.84963 -68.2075 -3.1483 9.36388 23.9414 -0.871264 -3.2356 -39.6227 0.0 0.0 -0.0 0.0 -0.0 5.71944 24.1442 -13.5266 -2.92276 -0.109258 -0.435195 32.7811 -16.9347 4.2572 8.79376 -0.0 -0.0 0.0 0.0 0.0 
1177.12838526 737.941 -1796.66370923 -0.877389627265 38.068744878 5.43563425954 2.69406 -0.253193 -1.58345 2.69544 -0.151934 -1.59634 2.69938 0.111769 -1.59966 2.69584 -0.142237 -1.59724 -11.1679 2.99937 -2.25976 -11.1745 7.15537 -1.38219 -0.0 0.0 -0.0 5.8009 9.19432 11.2617 -29.0464 -24.6119 65.7221 0.453899 -12.6723 0.0504011 26.4549 0.162252 -3.34562 -0.566035 -1.21139 -4.30623 -0.0 0.0 -0.0 9.66927 4.97104 -19.1166 0.265731 -5.82392 -57.9597 0.827084 22.2794 -0.162865 26.1997 -0.168094 3.31355 6.20965 9.74123 -41.0738 0.0 0.0 0.0 33.8168 -7.64165 -8.17295 -66.4642 -2.93692 9.1972 21.1885 0.872187 -2.8935 -40.1168 0.0 0.0 -0.0 0.0 -0.0 1.3458 26.3767 -12.5741 4.55431 0.214157 0.665755 33.4039 -17.6504 4.33325 7.19624 -0.0 -0.0 0.0 0.0 0.0 
1162.09006965 735.696 -1810.38059322 -0.59264090246 38.7931387031 5.33165716413 2.63041 -0.321169 -1.50414 2.63164 -0.224817 -1.52152 2.63739 0.0292429 -1.53776 2.63415 -0.213956 -1.52309 -10.6761 2.19351 -2.17448 -10.6735 5.58586 -1.54079 -0.0 0.0 -0.0 5.45063 9.96133 10.6338 -30.6684 -22.9727 66.0279 0.434041 -12.1347 0.0461357 28.2939 0.115928 -3.57596 -0.412353 -1.00724 -3.18701 -0.0 0.0 -0.0 9.57369 6.72527 -18.927 -0.215192 -3.06959 -57.987 1.03227 27.0825 -0.248618 25.0379 -0.192886 3.16721 6.35683 8.5336 -43.145 0.0 0.0 0.0 37.6206 -5.54147 -9.85113 -65.1618 -2.78239 9.06855 18.5861 -0.847791 -2.57951 -39.8737 0.0 0.0 -0.0 0.0 -0.0 -1.04633 27.4464 -12.427 6.55585 0.32492 0.952664 36.3398 -17.3787 4.62644 7.04475 -0.0 -0.0 0.0 0.0 0.0 
1139.13228796 736.216 -1818.83409374 -0.648521908259 40.6893982087 5.50303791042 2.41325 -0.30894 -1.32693 2.41421 -0.223886 -1.34389 2.41936 0.00604384 -1.3624 2.41683 -0.209178 -1.34626 -9.62906 1.34063 -1.67291 -9.62395 3.6604 -1.31067 -0.0 0.0 -0.0 5.2634 11.4851 10.2968 -33.2276 -24.2407 64.1992 0.472091 -13.1628 0.054468 29.5569 0.0798388 -3.73325 -0.33748 1.37926 -1.66479 -0.0 0.0 -0.0 9.66761 7.00504 -19.129 0.293729 -1.04246 -57.1809 1.20741 30.8832 -0.333531 24.7932 -0.19773 3.13633 6.62016 8.46624 -45.6474 0.0 0.0 0.0 38.9702 -4.04596 -10.6928 -62.5453 -2.48101 8.79974 16.4005 -0.666945 -2.29772 -38.9324 0.0 0.0 -0.0 0.0 -0.0 -1.46142 27.2848 -13.014 5.72358 0.277644 0.833826 35.2087 -19.9824 4.56161 6.27429 -0.0 -0.0 0.0 0.0 0.0 
1124.43238108 730.528 -1828.04705296 -1.25558934361 41.8306471343 7.10509579394 2.39216 -0.507258 -1.48674 2.39329 -0.411636 -1.51599 2.40413 -0.149632 -1.56373 2.40093 -0.394688 -1.52049 -9.43403 0.471443 -2.81995 -9.41245 2.81754 -2.64946 -0.0 0.0 -0.0 4.84689 10.4969 9.57683 -32.141 -20.9194 66.4507 0.388452 -10.8924 0.0370357 31.2268 0.0268101 -3.93995 -0.22072 0.310227 -1.34208 -0.0 0.0 -0.0 9.09515 8.06684 -17.8962 0.680471 0.699001 -58.1162 1.54025 37.3409 -0.520489 24.2192 -0.208571 3.06381 6.69565 8.01967 -46.6675 0.0 0.0 0.0 42.6695 -1.27788 -12.9256 -57.5381 -1.9401 8.24866 11.638 -0.625012 -1.66247 -40.0235 0.0 0.0 -0.0 0.0 -0.0 -1.56386 28.8327 -14.6671 7.64488 0.389389 1.10713 41.3102 -18.6598 5.11703 6.93703 -0.0 -0.0 0.0 0.0 0.0 
1117.12156985 732.799 -1828.67844225 -2.75512750838 42.8696425562 8.45228624381 2.24354 -0.441399 -1.55305 2.24481 -0.341693 -1.57798 2.25419 -0.0659731 -1.61319 2.2507 -0.319887 -1.58254 -7.47867 0.0610417 -2.52584 -7.4598 1.9205 -2.50226 -0.0 0.0 -0.0 5.05374 11.2539 9.93645 -33.2817 -21.9748 65.3685 0.465241 -12.9784 0.0529187 32.0684 -0.00219473 -4.04353 -0.206786 0.214906 -1.2896 -0.0 0.0 -0.0 9.38348 8.2463 -18.5139 2.9689 1.20853 -56.1287 1.68835 39.9045 -0.612955 24.2627 -0.207774 3.06931 6.4941 9.23852 -43.9624 0.0 0.0 0.0 43.714 -0.478163 -12.8567 -54.0062 -1.58869 7.83289 9.39539 -0.202042 -1.3518 -39.8195 0.0 0.0 -0.0 0.0 -0.0 0.579907 28.7991 -15.1628 6.16856 0.302705 0.897447 39.3111 -20.0285 4.96498 6.63382 -0.0 -0.0 0.0 0.0 0.0 
